<?xml version="1.0" encoding="utf-8"?>
<!-- Generator: Adobe Illustrator 22.1.0, SVG Export Plug-In . SVG Version: 6.00 Build 0)  -->
<svg version="1.1" id="Layer_1" xmlns="http://www.w3.org/2000/svg" xmlns:xlink="http://www.w3.org/1999/xlink" x="0px" y="0px"
	 viewBox="0 0 465.4 119.3" style="enable-background:new 0 0 465.4 119.3;" xml:space="preserve">
<style type="text/css">
	.st0{fill:#000000;}
	.st1{fill:#000000;}
</style>
<g>
	<g>
		<g>
			<g>
				<path class="st0" d="M19.6,116c-1.4,1.5-3.9,3.3-8.1,3.3c-6.5,0-11.4-4.6-11.4-11.5c0-6.9,5-11.5,11.4-11.5
					c4.2,0,6.7,1.7,7.9,2.9l-1.3,2.5c-0.9-1.1-3.4-2.7-6.5-2.7c-4.8,0-8.3,3.5-8.3,8.7s3.5,8.7,8.3,8.7c2.9,0,5.2-1.1,6.7-2.7
					L19.6,116z"/>
				<path class="st0" d="M38.9,118.9h-3.8l-5.8-9.6h-2.4v9.6h-3.1V96.6H30c2.2,0,4,0.5,5.4,1.6c1.3,1.1,2.2,2.7,2.2,4.7
					c0,3.9-2.7,5.6-5.1,6.1L38.9,118.9z M32.9,99.9c-1-0.7-2.2-0.8-3.7-0.8h-2.3v7.6h2.3c1.5,0,2.7-0.1,3.7-0.8c1-0.7,1.4-1.6,1.4-3
					C34.3,101.6,33.9,100.7,32.9,99.9z"/>
				<path class="st0" d="M55.4,118.9H42.1V96.6h13v2.6h-9.9v6.6h9.4v2.6h-9.4v7.7h10.2V118.9z"/>
				<path class="st0" d="M78.8,118.9h-3.5l-2.3-5.8h-9.6l-2.3,5.8h-3.3l9.1-22.3h2.7L78.8,118.9z M72.1,110.4l-3.9-10l-3.9,10H72.1z
					"/>
				<path class="st0" d="M92.8,99.2h-6.3v19.7h-3.1V99.2h-6.3v-2.6h15.7V99.2z"/>
				<path class="st0" d="M109.7,118.9H96.4V96.6h13v2.6h-9.9v6.6h9.4v2.6h-9.4v7.7h10.2V118.9z"/>
				<path class="st0" d="M135.8,107.7c-1.4,1.2-3.2,1.6-5.4,1.6h-3.1v9.6h-3.1V96.6h6.3c2.2,0,4,0.4,5.4,1.6
					c1.4,1.2,2.2,2.6,2.2,4.8C138,105.1,137.2,106.6,135.8,107.7z M133.4,100c-0.8-0.6-1.8-0.9-3.2-0.9h-2.9v7.6h2.9
					c1.4,0,2.4-0.3,3.2-0.8c0.8-0.6,1.4-1.6,1.4-3C134.8,101.6,134.2,100.6,133.4,100z"/>
				<path class="st0" d="M152.5,119.3c-6.3,0-11.5-4.4-11.5-11.5c0-7.1,5.2-11.5,11.5-11.5c6.3,0,11.5,4.4,11.5,11.5
					C164,114.9,158.8,119.3,152.5,119.3z M152.5,99c-4.6,0-8.3,3.3-8.3,8.7c0,5.4,3.8,8.7,8.3,8.7c4.6,0,8.3-3.3,8.3-8.7
					C160.8,102.2,157.1,99,152.5,99z"/>
				<path class="st0" d="M183.7,116c-1.6,1.5-4.5,2.9-8.3,2.9h-6.7V96.6h6.7c3.9,0,6.7,1.4,8.3,2.9c1.6,1.5,3.5,4.1,3.5,8.2
					C187.1,111.9,185.3,114.5,183.7,116z M181.3,101.3c-1.2-1.2-3.2-2.1-5.9-2.1h-3.6v16.9h3.6c2.7,0,4.7-0.9,5.9-2.1
					c1.2-1.2,2.6-3.1,2.6-6.4C183.9,104.5,182.5,102.5,181.3,101.3z"/>
				<path class="st0" d="M210,116c-1.4,1.5-3.9,3.3-8.1,3.3c-6.5,0-11.4-4.6-11.4-11.5c0-6.9,5-11.5,11.4-11.5
					c4.2,0,6.7,1.7,7.9,2.9l-1.3,2.5c-0.9-1.1-3.4-2.7-6.5-2.7c-4.8,0-8.3,3.5-8.3,8.7s3.5,8.7,8.3,8.7c2.9,0,5.2-1.1,6.7-2.7
					L210,116z"/>
				<path class="st0" d="M232.7,118.9h-3.5l-2.3-5.8h-9.6l-2.3,5.8h-3.3l9.1-22.3h2.7L232.7,118.9z M226,110.4l-3.9-10l-3.9,10H226z
					"/>
				<path class="st0" d="M246.8,117.5c-1.4,1.1-3.2,1.7-5.5,1.7c-3.9,0-6.1-2.5-7.2-3.7l1.8-2.1c1.1,1.5,3.2,3.2,5.6,3.2
					s4.4-1.4,4.4-3.7c0-2.3-2.5-3.2-3.6-3.7c-1.2-0.5-2.7-1.1-3.6-1.5c-0.5-0.2-1.4-0.7-2.2-1.6c-0.8-0.8-1.5-2.1-1.5-3.9
					s0.8-3.3,2-4.3c1.2-1,3-1.6,5.1-1.6c3.6,0,5.8,2.2,6.4,2.9l-1.6,2.1c-1.1-1.2-2.7-2.4-4.9-2.4c-2.2,0-3.9,1-3.9,3.1
					c0,2.1,1.5,2.8,2.9,3.4l4.1,1.7c0.4,0.2,1.8,0.9,2.5,1.8c0.7,0.9,1.4,2.1,1.4,3.7C249.1,114.6,248.2,116.3,246.8,117.5z"/>
				<path class="st0" d="M266.8,99.2h-6.3v19.7h-3.1V99.2h-6.3v-2.6h15.7V99.2z"/>
				<path class="st0" d="M298.3,118.9h-3.1v-10.4h-11.8v10.4h-3.1V96.6h3.1v9.2h11.8v-9.2h3.1V118.9z"/>
				<path class="st0" d="M307.3,118.9h-3.1V96.6h3.1V118.9z"/>
				<path class="st0" d="M332.7,115.6c-0.4,0.4-3.1,3.6-9.5,3.6c-6.4,0-11.4-4.6-11.4-11.5s5-11.5,11.3-11.5c5.7,0,8.2,3,9,3.9
					l-2.1,2c-1.3-1.5-3.4-3.2-6.9-3.2c-4.6,0-8.1,3.3-8.1,8.8c0,5.5,3.6,8.8,8.3,8.8c4.6,0,6.3-2,6.3-2v-4.9h-6V107h9V115.6z"/>
				<path class="st0" d="M356.4,118.9h-3.1v-10.4h-11.8v10.4h-3.1V96.6h3.1v9.2h11.8v-9.2h3.1V118.9z"/>
				<path class="st0" d="M373.2,118.9h-11V96.6h3.1v19.6h7.8V118.9z"/>
				<path class="st0" d="M380.1,118.9H377V96.6h3.1V118.9z"/>
				<path class="st0" d="M405.6,115.6c-0.4,0.4-3.1,3.6-9.5,3.6c-6.4,0-11.4-4.6-11.4-11.5s5-11.5,11.3-11.5c5.7,0,8.2,3,9,3.9
					l-2.1,2c-1.3-1.5-3.4-3.2-6.9-3.2c-4.6,0-8.1,3.3-8.1,8.8c0,5.5,3.6,8.8,8.3,8.8c4.6,0,6.3-2,6.3-2v-4.9h-6V107h9V115.6z"/>
				<path class="st0" d="M429.2,118.9H426v-10.4h-11.8v10.4h-3.1V96.6h3.1v9.2H426v-9.2h3.1V118.9z"/>
				<path class="st0" d="M448.5,99.2h-6.3v19.7h-3.1V99.2h-6.3v-2.6h15.7V99.2z"/>
				<path class="st0" d="M463,117.5c-1.4,1.1-3.2,1.7-5.5,1.7c-3.9,0-6.1-2.5-7.2-3.7l1.8-2.1c1.1,1.5,3.2,3.2,5.6,3.2
					s4.4-1.4,4.4-3.7c0-2.3-2.5-3.2-3.6-3.7c-1.2-0.5-2.7-1.1-3.6-1.5c-0.5-0.2-1.4-0.7-2.2-1.6c-0.8-0.8-1.5-2.1-1.5-3.9
					s0.8-3.3,2-4.3c1.2-1,3-1.6,5.1-1.6c3.6,0,5.8,2.2,6.4,2.9l-1.6,2.1c-1.1-1.2-2.7-2.4-4.9-2.4s-3.9,1-3.9,3.1
					c0,2.1,1.5,2.8,2.9,3.4l4.1,1.7c0.4,0.2,1.8,0.9,2.5,1.8c0.7,0.9,1.4,2.1,1.4,3.7C465.4,114.6,464.5,116.3,463,117.5z"/>
			</g>
		</g>
	</g>
	<g>
		<g>
			<path class="st1" d="M75.3,50.2c-1-3.7-6.1-5.7-8.3-2.2l9,32c3.8,0,7.2-1.4,5.9-6.3L75.3,50.2z"/>
			<path class="st1" d="M102.3,50.2l-6.6,23.6c-1.4,5.1,1.8,6.1,5.4,6.1l9.2-32.4C107.9,44.7,103.3,46.7,102.3,50.2z"/>
		</g>
		<g>
			<path class="st1" d="M25.9,5.7c13.7,0,19.3,10.2,19.3,20.3c0,10.3-5.6,20.2-19.3,20.2h-17v24.3H0V5.7H25.9z M8.9,13.8V38h16.5
				c7.9,0,11.1-6,11.1-12.1c0-5.9-3.1-12.1-10.6-12.1H8.9z"/>
			<path class="st1" d="M135.7,70.5V5.7h25.1c18.5,0,29.2,14.1,29.2,32.6c0,18.4-10.7,32.3-29.2,32.3H135.7z M160.8,62.3
				c13.5,0,20.4-10.5,20.4-24.1c0-13.7-7-24.4-20.4-24.4h-16.4v48.5H160.8z"/>
			<path class="st1" d="M203.3,5.7L221,48.2l17.6-42.6H253l-25.9,64.9h-12.2L189,5.7H203.3z"/>
			<path class="st1" d="M258.7,5.7h41.1v12.1h-27.3v14.8h23.9v12h-23.9v13.8h28.2v12.1h-41.9V5.7z"/>
			<path class="st1" d="M359.5,70.5H343l-14.5-22.4h-3.1v22.4h-13.8V5.7h26.6c14.7,0,21.6,10.6,21.6,21.3c0,9.2-5.1,18.3-16.2,20.6
				L359.5,70.5z M325.4,17.8v18.3H337c5.4,0,8.2-4.9,8.2-9.1c0-4-2.6-9.1-7.8-9.1H325.4z"/>
			<path class="st1" d="M380.4,51.5c0.2,4.1,3.5,7.8,9.7,7.8c5.6,0,9.4-2.6,9.5-6.9c0.1-2.9-1.2-5.5-7.8-7.3l-7.8-2.2
				c-14.3-4.4-16.8-12.8-16.8-18.6c0-11.6,9.9-19.4,22.3-19.4c12.5,0,21.9,7.4,21.9,19.9h-13.7c0-4.3-2.9-7.3-8.4-7.3
				c-4.8,0-8.4,2.6-8.4,6.5c0,1.7,0.7,4.8,7,6.6l7.7,2.4c15.7,4.5,18,13.4,17.8,19.6c-0.2,12.9-11.9,19-23.4,19
				c-14.1,0-23.5-8.4-23.5-20.1H380.4z"/>
			<path class="st1" d="M423.5,5.7h41.1v12.1h-27.3v14.8h23.9v12h-23.9v13.8h28.2v12.1h-41.9V5.7z"/>
		</g>
		<path class="st1" d="M129.4,39.9c0-22-17.9-39.9-39.9-39.9c-22,0-39.9,17.9-39.9,39.9c0,9.8,3.6,18.8,9.4,25.7
			c1.1,5.8,4.9,11.3,10.5,13.3c1.1,0.4,2.5,0.8,4.1,1l-8.6-30.3c-1.9,1.2-3.5,3-4.6,5.1c-2.3-4.4-3.6-9.4-3.6-14.7
			C57,22,71.6,7.4,89.5,7.4c18,0,32.6,14.6,32.6,32.6c0,5.9-1.6,11.4-4.4,16.2c-1.1-2.9-3.1-5.3-5.7-6.8l-8.6,30.5
			c0.6-0.1,1.2-0.1,1.7-0.2c6.3-0.7,11.1-6,12.9-11.8C125.1,60.6,129.4,50.8,129.4,39.9z"/>
	</g>
</g>
</svg>
