<?xml version="1.0" encoding="utf-8"?>
<!-- Generator: Adobe Illustrator 27.2.0, SVG Export Plug-In . SVG Version: 6.00 Build 0)  -->
<svg version="1.1" id="Layer_1" xmlns="http://www.w3.org/2000/svg" xmlns:xlink="http://www.w3.org/1999/xlink" x="0px" y="0px"
	 viewBox="0 0 412 106.9" style="enable-background:new 0 0 412 106.9;" xml:space="preserve">
<style type="text/css">
	.st0{fill:#FFFFFF;}
	.st1{fill-rule:evenodd;clip-rule:evenodd;fill:#111111;}
	.st2{fill:#0D7AB3;}
</style>
<path class="st0" d="M392.1,105H19.7C10,105,2.1,97.2,2.1,87.5V19.8c0-9.7,7.9-17.6,17.6-17.6H392c9.7,0,17.6,7.9,17.6,17.6v67.7
	C409.6,97.2,401.8,105,392.1,105z"/>
<path class="st1" d="M119.5,24v12.7h5v1.9h-7.4V24H119.5z M126.3,23.9c0-0.9,0.7-1.5,1.5-1.5s1.5,0.7,1.5,1.5c0,0.9-0.7,1.5-1.5,1.5
	C127,25.5,126.3,24.8,126.3,23.9z M126.7,27h2.4v11.6h-2.4C126.7,38.6,126.7,27,126.7,27z M136.6,38.8c-2.8,0-4.8-1.6-4.9-3.8h2.5
	c0.1,1,1,1.7,2.3,1.7c1.4,0,2.1-0.6,2.1-1.4c0-2.3-6.8-1-6.8-5.2c0-1.9,1.7-3.4,4.5-3.4c2.6,0,4.4,1.4,4.5,3.7h-2.4
	c-0.1-1-0.9-1.7-2.2-1.7s-2,0.5-2,1.3c0,2.3,6.6,1,6.7,5.2C141.1,37.4,139.4,38.8,136.6,38.8z M144.2,29h-1.4v-2h1.4v-2.9h2.4V27
	h2.8v2h-2.7v6.4c0,0.9,0.3,1.2,1.4,1.2h1.5v2h-1.9c-2.1,0-3.4-0.9-3.4-3.2V29H144.2z M156.9,38.8c-3.3,0-5.8-2.4-5.8-6s2.4-6,5.8-6
	c3.3,0,5.7,2.3,5.7,5.7c0,0.4,0,0.8-0.1,1.2h-8.9c0.2,1.9,1.5,3.1,3.3,3.1c1.5,0,2.3-0.7,2.7-1.6h2.6
	C161.6,37.2,159.7,38.8,156.9,38.8z M153.6,31.8h6.4c0-1.8-1.5-2.9-3.3-2.9C155.2,28.9,153.8,30,153.6,31.8z M173.3,32.1
	c0-2.1-1.2-3.2-2.9-3.2c-1.8,0-2.9,1.1-2.9,3.2v6.5h-2.4V27h2.4v1.3c0.8-1,2.1-1.5,3.5-1.5c2.7,0,4.8,1.7,4.8,5v6.9h-2.4v-6.6
	C173.4,32.1,173.3,32.1,173.3,32.1z M189.7,38.8c-3.3,0-5.8-2.4-5.8-6s2.6-6,5.9-6s5.9,2.3,5.9,6S193,38.8,189.7,38.8z M189.7,36.8
	c1.8,0,3.6-1.3,3.6-3.9s-1.7-3.9-3.5-3.9s-3.4,1.3-3.4,3.9S187.9,36.8,189.7,36.8z M206.5,32.1c0-2.1-1.2-3.2-2.9-3.2
	c-1.8,0-2.9,1.1-2.9,3.2v6.5h-2.4V27h2.4v1.3c0.8-1,2.1-1.5,3.5-1.5c2.7,0,4.8,1.7,4.8,5v6.9h-2.4v-6.6
	C206.6,32.1,206.5,32.1,206.5,32.1z"/>
<path class="st2" d="M48.7,88.7l-7.9-28.3c1.9-3.1,6.4-1.3,7.3,1.9L54,83.1C55.1,87.5,52,88.7,48.7,88.7z M66.7,83.1l6-20.8
	c0.9-3.4,5.6-5.1,7.3-1.9l-8.1,28.3C68.6,88.7,65.5,87.5,66.7,83.1z M88.2,74.9c-0.3,0.4-0.4,0.7-0.7,1.2c-0.9,5.1-4.4,10-9.4,11.7
	c-1,0.3-2.2,0.7-3.7,0.9l7.5-26.8c1.8,1,3.1,2.6,4,4.4c2-3.8,3.1-8.2,3.1-12.9c0-15.8-12.9-28.7-28.7-28.7S31.5,37.6,31.5,53.4
	c0,4.7,1.2,9.1,3.1,13c1-1.9,2.3-3.5,4.1-4.5l7.5,26.8c-1.3-0.1-2.6-0.4-3.5-0.9c-5-1.8-8.2-6.4-9.2-11.6C28.2,70.1,25,62,25,53.4
	c0-19.5,15.8-35.1,35.3-35.1s35.3,15.8,35.3,35.1C95.5,61.4,92.9,68.9,88.2,74.9z M129.4,68.4h-5.6v12.8h-6.7V48h12.2
	c8,0,12,4.5,12,10.3C141.4,63.3,137.9,68.4,129.4,68.4z M129.1,63.1c3.8,0,5.4-1.9,5.4-4.8c0-3-1.7-4.9-5.4-4.9h-5.3v9.7H129.1z
	 M161.5,81.5c-9.4,0-17-7-17-17c0-10,7.7-17,17-17c9.5,0,17,7,17,17C178.5,74.5,170.9,81.5,161.5,81.5z M161.5,75.6
	c6,0,10.1-4.3,10.1-11.1c0-6.8-4.1-11-10.1-11c-6,0-10.2,4.2-10.2,11C151.3,71.3,155.5,75.6,161.5,75.6z M212,64.6
	c0,10-6.9,16.6-17.5,16.6h-11.6V48h11.6C205.1,48,212,54.5,212,64.6z M194.2,75.5c7,0,11-4,11-10.9s-4-11-11-11h-4.7v22H194.2z
	 M238.3,48h7.1l-12.2,33.2h-8.1L212.9,48h7.1l9.1,26.4L238.3,48z M267.8,53.3h-12.6v8.3h11.2V67h-11.2v8.8h12.6v5.4h-19.3V47.9h19.3
	V53.3z M286.3,48c8,0,12,4.6,12,10.2c0,4-2.2,8.1-7.6,9.6l8,13.5H291l-7.3-13h-3.1v13h-6.7V48H286.3z M286.1,53.5h-5.6v9.8h5.6
	c3.7,0,5.4-2,5.4-5C291.5,55.3,289.8,53.5,286.1,53.5z M315.1,81.5c-6.9,0-12.2-3.6-12.3-9.9h7.1c0.2,2.7,2,4.4,5,4.4
	c3.1,0,5-1.7,5-4c0-7.2-17.1-2.9-17.1-14.9c0-6,4.9-9.6,11.7-9.6c6.8,0,11.5,3.5,11.9,9.5h-7.3c-0.1-2.2-1.9-3.9-4.8-4
	c-2.6-0.1-4.6,1.2-4.6,3.9c0,6.7,17,3,17,14.7C326.9,76.8,322.7,81.5,315.1,81.5z M351.9,53.3h-12.6v8.3h11.2V67h-11.2v8.8h12.6v5.4
	h-19.3V47.9h19.3V53.3z"/>
</svg>
