<?xml version="1.0" encoding="utf-8"?>
<svg viewBox="11.56 138.776 465.5 80" xmlns="http://www.w3.org/2000/svg">
  <g transform="matrix(1, 0, 0, 1, 11.559905, 138.775868)">
    <g>
      <path class="st1" d="M75.3,50.2c-1-3.7-6.1-5.7-8.3-2.2l9,32c3.8,0,7.2-1.4,5.9-6.3L75.3,50.2z" style="fill: rgb(25, 123, 177);"/>
      <path class="st1" d="M102.3,50.2l-6.6,23.6c-1.4,5.1,1.8,6.1,5.4,6.1l9.2-32.4C107.9,44.7,103.3,46.7,102.3,50.2z" style="fill: rgb(25, 123, 177);"/>
    </g>
    <g>
      <path class="st1" d="M25.9,5.7c13.7,0,19.3,10.2,19.3,20.3c0,10.3-5.6,20.2-19.3,20.2h-17v24.3H0V5.7H25.9z M8.9,13.8V38h16.5 c7.9,0,11.1-6,11.1-12.1c0-5.9-3.1-12.1-10.6-12.1H8.9z" style="fill: rgb(25, 123, 177);"/>
      <path class="st1" d="M135.7,70.5V5.7h25.1c18.5,0,29.2,14.1,29.2,32.6c0,18.4-10.7,32.3-29.2,32.3H135.7z M160.8,62.3 c13.5,0,20.4-10.5,20.4-24.1c0-13.7-7-24.4-20.4-24.4h-16.4v48.5H160.8z" style="fill: rgb(25, 123, 177);"/>
      <path class="st1" d="M203.3,5.7L221,48.2l17.6-42.6H253l-25.9,64.9h-12.2L189,5.7H203.3z" style="fill: rgb(25, 123, 177);"/>
      <path class="st1" d="M258.7,5.7h41.1v12.1h-27.3v14.8h23.9v12h-23.9v13.8h28.2v12.1h-41.9V5.7z" style="fill: rgb(25, 123, 177);"/>
      <path class="st1" d="M359.5,70.5H343l-14.5-22.4h-3.1v22.4h-13.8V5.7h26.6c14.7,0,21.6,10.6,21.6,21.3c0,9.2-5.1,18.3-16.2,20.6 L359.5,70.5z M325.4,17.8v18.3H337c5.4,0,8.2-4.9,8.2-9.1c0-4-2.6-9.1-7.8-9.1H325.4z" style="fill: rgb(25, 123, 177);"/>
      <path class="st1" d="M380.4,51.5c0.2,4.1,3.5,7.8,9.7,7.8c5.6,0,9.4-2.6,9.5-6.9c0.1-2.9-1.2-5.5-7.8-7.3l-7.8-2.2 c-14.3-4.4-16.8-12.8-16.8-18.6c0-11.6,9.9-19.4,22.3-19.4c12.5,0,21.9,7.4,21.9,19.9h-13.7c0-4.3-2.9-7.3-8.4-7.3 c-4.8,0-8.4,2.6-8.4,6.5c0,1.7,0.7,4.8,7,6.6l7.7,2.4c15.7,4.5,18,13.4,17.8,19.6c-0.2,12.9-11.9,19-23.4,19 c-14.1,0-23.5-8.4-23.5-20.1H380.4z" style="fill: rgb(25, 123, 177);"/>
      <path class="st1" d="M423.5,5.7h41.1v12.1h-27.3v14.8h23.9v12h-23.9v13.8h28.2v12.1h-41.9V5.7z" style="fill: rgb(25, 123, 177);"/>
    </g>
    <path class="st1" d="M129.4,39.9c0-22-17.9-39.9-39.9-39.9c-22,0-39.9,17.9-39.9,39.9c0,9.8,3.6,18.8,9.4,25.7 c1.1,5.8,4.9,11.3,10.5,13.3c1.1,0.4,2.5,0.8,4.1,1l-8.6-30.3c-1.9,1.2-3.5,3-4.6,5.1c-2.3-4.4-3.6-9.4-3.6-14.7 C57,22,71.6,7.4,89.5,7.4c18,0,32.6,14.6,32.6,32.6c0,5.9-1.6,11.4-4.4,16.2c-1.1-2.9-3.1-5.3-5.7-6.8l-8.6,30.5 c0.6-0.1,1.2-0.1,1.7-0.2c6.3-0.7,11.1-6,12.9-11.8C125.1,60.6,129.4,50.8,129.4,39.9z" style="fill: rgb(25, 123, 177);"/>
  </g>
</svg>