<svg xmlns="http://www.w3.org/2000/svg" xmlns:xlink="http://www.w3.org/1999/xlink" width="188" height="50" viewBox="0 0 188 50">
  <defs>
    <rect id="bp-btn-pay-a" width="188" height="50" rx="4"/>
  </defs>
  <g fill="none" fill-rule="evenodd">
    <mask id="bp-btn-pay-b" fill="#fff">
      <use xlink:href="#bp-btn-pay-a"/>
    </mask>
    <use fill="#293C92" xlink:href="#bp-btn-pay-a"/>
    <g fill="#1A3B8B" mask="url(#bp-btn-pay-b)">
      <rect width="188" height="50"/>
    </g>
    <g transform="translate(24.231 11.667)">
      <g fill-rule="nonzero" transform="translate(11.737 3.314)">
        <g fill="#FFF" transform="translate(54.468)">
          <path d="M61.2468827 5.10893841L58.0620074 5.10893841 56.2189831 12.8855188 55.960313 13.9525755C55.7824772 14.0010781 55.6046414 14.0495807 55.4268062 14.0819157 55.1034681 14.1465858 54.7639638 14.1789209 54.4082922 14.1789209 54.0041204 14.1789209 53.6807828 14.1142508 53.4382795 14.0010781 53.2119435 13.8879054 53.0341077 13.7262301 52.9371062 13.4998848 52.8401052 13.2897069 52.8077712 13.0310265 52.8239379 12.740011 52.8401052 12.4489956 52.9047727 12.125645 52.985607 11.8022945L53.9556196 7.76041282 54.586128 5.07660339 51.3365852 5.07660339 49.8653991 11.2849336C49.6875634 12.0286398 49.5905618 12.740011 49.5582283 13.4190472 49.5258943 14.0980833 49.6390626 14.6801142 49.8653991 15.2136426 50.0917352 15.7310035 50.4959075 16.1351916 51.0455811 16.4423746 51.5952552 16.7495576 52.3874326 16.8950654 53.3897788 16.8950654 54.0849547 16.8950654 54.6992963 16.8303952 55.2166364 16.7172226 55.2328036 16.7172226 55.2651371 16.701055 55.2813039 16.701055 55.1358021 17.3477561 54.8447981 17.865117 54.3921255 18.2693052 53.9232861 18.6734933 53.244277 18.8836712 52.3389318 18.8836712 51.9509268 18.8836712 51.5952552 18.8675036 51.2719176 18.819001L50.6414093 21.4543079C51.0617484 21.5028105 51.5305877 21.5351455 52.0479278 21.5351455 53.017941 21.5351455 53.8586186 21.4219728 54.586128 21.211795 55.3136379 20.9854496 55.927979 20.6620991 56.4614863 20.2094083 56.9788264 19.7567176 57.4153323 19.1908541 57.7710038 18.5279856 58.1266749 17.8489494 58.4015122 17.0567406 58.6116815 16.1190241L60.8103774 6.87119884 61.2468827 5.10893841zM47.9092065 11.7537919C47.7152039 12.5621682 47.6505364 13.3867121 47.7313708 14.1950884 47.8122052 15.0196323 48.1355428 16.2645318 48.4427135 16.8950654L45.3710062 16.8950654C44.9991679 16.2645318 45.0153348 15.9573488 44.9345004 15.7633385 44.5303284 16.086689 44.0938226 16.361537 43.6088162 16.5717148 43.1238098 16.7818927 42.5903027 16.8950654 41.9759613 16.8950654 41.2646186 16.8950654 40.6502771 16.7657252 40.1491038 16.5232123 39.6479305 16.2806994 39.2275916 15.9411813 38.904254 15.5208256 38.5809164 15.1004699 38.35458 14.6154441 38.2090781 14.0495807 38.0635762 13.4837172 37.9989087 12.8855188 37.9989087 12.2388177 37.9989087 11.2525986 38.1767443 10.3310495 38.5162488 9.45800308 38.8719202 8.58495668 39.3569266 7.8250829 39.9712681 7.17838184 40.5856095 6.53168078 42.0891295 5.09277092 44.5464953 5.09277092L49.4773941 5.09277092 47.9092065 11.7537919zM45.6620101 7.79274784C44.174657 7.79274784 43.8998201 7.79274784 43.2854786 8.09993088 42.8489728 8.32627623 42.4933015 8.66579429 42.1861307 9.05381494 41.87896 9.4418356 41.6202899 9.89452633 41.4424542 10.4118872 41.2646186 10.929248 41.1676172 11.4627764 41.1676172 12.0124723 41.1676172 12.6915084 41.2807854 13.2412044 41.5071217 13.6453925 41.7334581 14.0495807 42.153797 14.243591 42.7681384 14.243591 43.091476 14.243591 43.3986468 14.1789209 43.6573168 14.0495807 43.9159869 13.9202405 44.2069908 13.7100626 44.4979946 13.4028796 44.5303284 13.047194 44.5788291 12.6753409 44.6434966 12.2873202 44.7081641 11.8992996 44.7889985 11.5274465 44.853666 11.204096L45.6620101 7.79274784zM37.1258971 9.78135361C37.1258971 10.8322429 36.9480614 11.7861269 36.6085569 12.6591734 36.2690524 13.5322198 35.784046 14.2759261 35.1697045 14.9064596 34.5553631 15.5369931 33.8278535 16.0220189 32.9710088 16.3777045 32.1141641 16.7333901 31.1926519 16.9112329 30.1903053 16.9112329 29.7052989 16.9112329 29.2202925 16.8627303 28.7191192 16.7818927L27.7491064 20.6782666 24.5642309 20.6782666 28.2664465 5.12510594 32.5183361 5.12510594C33.3266801 5.12510594 34.021856 5.25444619 34.5876968 5.49695906 35.1697045 5.73947198 35.6385441 6.07899005 36.0265492 6.49934572 36.3983875 6.91970143 36.6732245 7.42089476 36.8510601 7.98675817 37.0450627 8.53645409 37.1258971 9.13465255 37.1258971 9.78135361zM29.3172938 14.1950884C29.559797 14.2597585 29.8669677 14.2759261 30.2226391 14.2759261 30.7884799 14.2759261 31.2896532 14.1789209 31.7584928 13.968743 32.2111654 13.7585652 32.6153374 13.4675497 32.938675 13.0956966 33.2620126 12.7238435 33.5045158 12.2711528 33.6985184 11.7537919 33.8763541 11.236431 33.9733554 10.6544001 33.9733554 10.0238665 33.9733554 9.40950054 33.8440203 8.87597215 33.5691834 8.45561643 33.2943464 8.01909323 32.8255068 7.79274784 32.1464979 7.79274784L30.8854812 7.79274784 29.3172938 14.1950884zM22.6242052 14.1950884C22.2200332 14.1950884 21.8966956 14.1304183 21.6541923 14.0172456 21.4278561 13.9040729 21.2500204 13.7423977 21.1530191 13.5160523 21.0560178 13.3058744 21.023684 13.047194 21.0398509 12.7561786 21.0560178 12.465163 21.1206853 12.1418125 21.2015197 11.818462L22.1715325 7.77658031 25.7929138 7.77658031 26.4557559 5.09277092 22.8182078 5.09277092 23.6588856 1.6975903 20.2638406 2.23111868 18.1136455 11.3172687C17.9358098 12.0609749 17.8388085 12.7723461 17.8064748 13.4513822 17.774141 14.1304183 17.8873092 14.7124493 18.1136455 15.2459777 18.3399818 15.7633385 18.7441539 16.1675267 19.2938278 16.4747097 19.8435018 16.7818927 20.6356789 16.9274004 21.6380255 16.9274004 22.3332014 16.9274004 22.9475428 16.8627303 23.464883 16.7495576 23.5133836 16.7333901 23.5942181 16.7172226 23.6427187 16.701055L24.3055608 13.936408C24.0792244 14.0172456 23.8528881 14.0657482 23.6427187 14.0980833 23.3193811 14.1627534 22.9798766 14.1950884 22.6242052 14.1950884z"/>
          <polygon points="14.525 5.109 11.712 16.911 14.896 16.911 17.693 5.109"/>
          <polygon points="18.033 3.751 18.518 1.698 15.333 1.698 14.848 3.751"/>
          <path d="M7.47583809,5.12510594 C8.15484706,5.12510594 8.75302162,5.25444619 9.25419496,5.49695906 C9.75536825,5.73947198 10.1595402,6.06282251 10.4990447,6.48317818 C10.8223824,6.9035339 11.0648855,7.3885597 11.2265544,7.93825562 C11.3882232,8.48795149 11.4690576,9.08615001 11.4690576,9.73285107 C11.4690576,10.7190702 11.2912219,11.6406192 10.9193836,12.5298332 C10.5475454,13.4028796 10.062539,14.1789209 9.43203065,14.8256219 C8.80152228,15.472323 8.05784579,15.9896839 7.20100109,16.361537 C6.34415643,16.7333901 5.42264426,16.9274004 4.42029764,16.9274004 C4.29096259,16.9274004 4.06462627,16.9274004 3.74128865,16.9112329 C3.41795104,16.9112329 3.04611279,16.8788978 2.64194077,16.8142277 C2.22160188,16.7495576 1.7850961,16.66872 1.33242345,16.5555473 C0.863583904,16.4423746 0.42707813,16.2806994 0.0229061151,16.086689 L3.72512178,0.53352838 L7.03933231,0.0161675267 L5.72981496,5.52929413 C6.02081882,5.39995392 6.27948892,5.30294873 6.57049277,5.23827866 C6.84532972,5.157441 7.15250048,5.12510594 7.47583809,5.12510594 Z M4.69513461,14.2759261 C5.19630792,14.2759261 5.66514745,14.1627534 6.10165323,13.9040729 C6.53815901,13.66156 6.92616413,13.3382095 7.24950174,12.9340214 C7.57283935,12.5298332 7.83150945,12.0609749 8.00934513,11.5597816 C8.18718082,11.0424207 8.28418208,10.5088923 8.28418208,9.95919641 C8.28418208,9.28016029 8.17101396,8.74663194 7.94467762,8.35861129 C7.71834128,7.97059063 7.24950174,7.79274784 6.63516028,7.79274784 C6.4411577,7.79274784 6.23098826,7.80891537 5.90765065,7.88975303 C5.58431304,7.9544231 5.30947609,8.11609837 5.05080599,8.34244376 L3.66045425,14.2112559 C4.08079315,14.2759261 4.21012819,14.2920936 4.32329636,14.2920936 C4.40413076,14.2759261 4.5334658,14.2759261 4.69513461,14.2759261 Z"/>
        </g>
        <path fill="#97AAFF" d="M3.47914711,0.503671701 C4.17325549,0.503671701 4.76927445,0.622243212 5.26722178,0.859389817 C5.76516907,1.09653647 6.14239625,1.42496908 6.3989146,1.84469762 C6.65543291,2.26442611 6.78369015,2.74920529 6.78369015,3.29904963 C6.78369015,3.88666955 6.65651068,4.38823762 6.40214801,4.80376883 C6.1477853,5.21930009 5.77379148,5.53514104 5.28015537,5.75130124 C4.78651932,5.96746143 4.18618918,6.0755399 3.47914711,6.0755399 L1.25456234,6.0755399 L1.25456234,9.67049665 L0,9.67049665 L0,0.503671701 L3.47914711,0.503671701 Z M3.47914711,5.09338005 C4.17756672,5.09338005 4.69382904,4.93388562 5.02794957,4.61489195 C5.36207005,4.29589827 5.52912781,3.86148581 5.52912781,3.31164143 C5.52912781,2.9800559 5.45691577,2.67680661 5.31248947,2.40188441 C5.16806317,2.12696222 4.9417269,1.90660809 4.6334738,1.74081533 C4.32522069,1.57502257 3.94044897,1.4921274 3.47914711,1.4921274 L1.25456234,1.4921274 L1.25456234,5.09338005 L3.47914711,5.09338005 Z M13.2009005,8.18466515 C13.2009005,8.42391037 13.2224564,8.67049719 13.2655687,8.92443293 C13.308681,9.17836871 13.369037,9.39347632 13.4466392,9.56976231 L13.4466392,9.67049665 L12.18561,9.67049665 C12.1123194,9.50680251 12.0562741,9.26965948 12.017473,8.95906037 C11.776044,9.21089749 11.4861182,9.41341345 11.1476864,9.56661436 C10.8092546,9.71981528 10.4374164,9.79641459 10.0321606,9.79641459 C9.56654724,9.79641459 9.15375309,9.70722362 8.79376539,9.52883897 C8.43377724,9.35045436 8.15570696,9.10806477 7.95954586,8.80166299 C7.76338481,8.49526116 7.66530573,8.15528613 7.66530573,7.78172779 C7.66530573,7.29903997 7.79356297,6.88981081 8.05008133,6.55402801 C8.30659963,6.2182452 8.67089327,5.96536257 9.14297343,5.79537248 C9.61505329,5.62538244 10.1722717,5.54038871 10.8146454,5.54038871 L11.9916059,5.54038871 L11.9916059,4.99894161 C11.9916059,4.5834104 11.865504,4.25707636 11.6132968,4.01992976 C11.3610901,3.78278315 10.9978742,3.66421164 10.5236385,3.66421164 C10.234786,3.66421164 9.97611573,3.71352898 9.74762073,3.81216518 C9.51912524,3.91080138 9.34128967,4.04301388 9.21410814,4.20880664 C9.08692661,4.3745994 9.02333708,4.55403067 9.02333708,4.74710578 L7.81404252,4.74710578 C7.81404252,4.41552026 7.93044404,4.09443274 8.16325056,3.78383363 C8.39605713,3.47323457 8.72370589,3.22035189 9.14620644,3.02517815 C9.56870749,2.83000437 10.0515582,2.73241898 10.5947733,2.73241898 C11.1121212,2.73241898 11.5658718,2.81741271 11.9560383,2.98740276 C12.3462048,3.1573928 12.6512199,3.41342338 12.8710925,3.75550213 C13.0909657,4.09758084 13.2009005,4.51625379 13.2009005,5.01153341 L13.2009005,8.18466515 Z M10.2067646,8.78907119 C10.4826836,8.78907119 10.7402757,8.74185242 10.9795489,8.6474135 C11.2188226,8.55297458 11.4246806,8.42810722 11.5971297,8.27280769 C11.7695794,8.11750811 11.9010697,7.94961926 11.9916059,7.76913599 L11.9916059,6.35885523 L11.0086495,6.35885523 C10.3188523,6.35885523 9.79073449,6.46483508 9.42427977,6.67679799 C9.05782505,6.88876086 8.87460014,7.20250324 8.87460014,7.61803445 C8.87460014,7.8404906 8.9263343,8.03985865 9.02980409,8.2161446 C9.1332734,8.39243059 9.28416421,8.53198822 9.48248095,8.6348217 C9.68079768,8.73765519 9.92222328,8.78907119 10.2067646,8.78907119 Z M20.0384537,2.85833692 L17.2318554,10.7219113 C17.0594062,11.1794154 16.8104364,11.5771022 16.4849382,11.9149837 C16.1594399,12.2528651 15.7164675,12.4218033 15.1560072,12.4218033 C15.0654714,12.4218033 14.9479924,12.410261 14.8035661,12.3871759 C14.6591399,12.3640908 14.5502827,12.3420554 14.4769917,12.321069 L14.4769917,11.3829804 C14.5244151,11.391375 14.5783046,11.3987201 14.6386622,11.4050161 C14.6990192,11.411312 14.7529092,11.4144599 14.8003326,11.4144599 C15.2098996,11.4144599 15.5278483,11.3315648 15.754188,11.165772 C15.9805276,10.9999792 16.1648302,10.7093216 16.3071006,10.2937904 L16.5722404,9.59494591 L14.076049,2.85833692 L15.3952794,2.85833692 L17.1283866,7.95801287 L18.7515574,2.85833692 L20.0384537,2.85833692 Z M32.6530025,2.85833692 L30.622422,9.67049665 L29.6459326,9.67049665 L27.951627,4.52674941 L26.2961221,9.67049665 L25.3196327,9.67049665 L23.2890526,2.85833692 L24.4918802,2.85833692 L25.8628453,7.91394158 L27.4860161,2.85833692 L28.4625055,2.85833692 L30.1115434,8.02726771 L31.4566414,2.85833692 L32.6530025,2.85833692 Z M34.3494369,0.377753764 C34.5736207,0.377753764 34.7493009,0.440712087 34.876482,0.566630645 C35.0036635,0.692549203 35.0672531,0.852043678 35.0672531,1.0451188 C35.0672531,1.23399663 35.0036635,1.39034316 34.876482,1.51416305 C34.7493009,1.63798294 34.5736207,1.69989198 34.3494369,1.69989198 C34.1252526,1.69989198 33.9517282,1.63798294 33.8288579,1.51416305 C33.705988,1.39034316 33.6445538,1.23399663 33.6445538,1.0451188 C33.6445538,0.852043678 33.705988,0.692549203 33.8288579,0.566630645 C33.9517282,0.440712087 34.1252526,0.377753764 34.3494369,0.377753764 Z M33.7350891,9.67049665 L33.7350891,2.85833692 L34.9443837,2.85833692 L34.9443837,9.67049665 L33.7350891,9.67049665 Z M39.5832194,9.67049665 C39.3073009,9.75444234 38.9990522,9.79641459 38.6584651,9.79641459 C38.1712954,9.79641459 37.7800571,9.653709 37.4847376,9.36829363 C37.1894181,9.08287826 37.0417608,8.6190852 37.0417608,7.97690057 L37.0417608,3.74605828 L35.767798,3.74605828 L35.767798,2.85833692 L37.0417608,2.85833692 L37.0417608,1.20251618 L38.2510554,1.20251618 L38.2510554,2.85833692 L39.5573523,2.85833692 L39.5573523,3.74605828 L38.2510554,3.74605828 L38.2510554,7.98319647 C38.2510554,8.30638743 38.3200343,8.52359366 38.4579935,8.6348217 C38.5959532,8.74604975 38.7834888,8.80166299 39.0206067,8.80166299 C39.1111424,8.80166299 39.2102991,8.79431785 39.3180801,8.77962734 C39.425861,8.76493683 39.5120842,8.74919727 39.5767528,8.73240809 L39.5832194,9.67049665 Z M43.9763163,2.73241898 C45.4723139,2.73241898 46.2203015,3.55717314 46.2203015,5.20670619 L46.2203015,9.67049665 L45.0110069,9.67049665 L45.0110069,5.19411439 C45.0110069,4.67365103 44.8956832,4.29590104 44.6650323,4.0608531 C44.4343815,3.82580511 44.0862546,3.70828289 43.6206412,3.70828289 C43.2498753,3.70828289 42.9168378,3.80691761 42.6215183,4.00419001 C42.3261987,4.20146241 42.0923183,4.46588741 41.9198687,4.79747293 L41.9198687,9.67049665 L40.7105741,9.67049665 L40.7105741,0 L41.9198687,0 L41.9198687,3.66421164 C42.1742317,3.36620437 42.4760134,3.13640644 42.8252229,2.97481096 C43.1744329,2.81321548 43.5581269,2.73241898 43.9763163,2.73241898 Z" transform="translate(0 4.971)"/>
      </g>
    </g>
  </g>
</svg>
